# xmcd
#
# Track frame offsets:
#	150
#	25858
#	54207
#	82407
#	99765
#	117325
#	142222
#	161204
#	192345
#	207179
#	225889
#	247673
#	269788
#	297104
#
# Disc length: 4285 seconds
#
# Revision: 1
# Processed by: cddbd v1.5.1PL0 Copyright (c) Steve Scherf et al.
# Submitted via: audiograbber 1.83.01
#
DISCID=c310bb0e
DTITLE=Blaat - Dance 7
DYEAR=1900
DGENRE=dance
TTITLE0=Prodigy - Smack My Bitch Up
TTITLE1=Prodigy - No Good
TTITLE2=RMB - Spring
TTITLE3=Wild Child - Renegade master
TTITLE4=Duke - So in love with you
TTITLE5=Snap - Rhytem is a dancer
TTITLE6=Sunclub - Fiesta
TTITLE7=Fatboy Slim - Rockafellar Skank
TTITLE8=Eddy Amador - House Music
TTITLE9=Jason Nevins ft Run Dmc - It's like that
TTITLE10=Chemical Brothers - Hey Boy Hey Girl
TTITLE11=King Bee - Back by dope demand
TTITLE12=DJ Jose and G Spott - House of justice
TTITLE13=Cave - Street Carnival
EXTD=
EXTT0=
EXTT1=
EXTT2=
EXTT3=
EXTT4=
EXTT5=
EXTT6=
EXTT7=
EXTT8=
EXTT9=
EXTT10=
EXTT11=
EXTT12=
EXTT13=
PLAYORDER=
